<?xml version="1.0" encoding="UTF-8"?>
<svg id="OBJECTS" xmlns="http://www.w3.org/2000/svg" viewBox="0 0 358.03 139.95">
  <defs>
    <style>
      .cls-1 {
        fill: #bf7ba0;
      }

      .cls-1, .cls-2, .cls-3 {
        stroke-width: 0px;
      }

      .cls-2 {
        fill: #e5bbc1;
      }

      .cls-3 {
        fill: #fff;
      }
    </style>
  </defs>
  <path class="cls-2" d="M260.61,97.74c-19.02,5.51-39.39-1.27-59.29-1.84-13.59-.4-27.07,2.14-40.56,3.79-19.04,2.3-38.28,2.86-57.42,1.63-6.66-.44-15.55-3.91-14.06-10.39.71-3.11,3.75-5.08,6.62-6.45,5.77-2.76,12.04-4.5,18.43-5.1-6.13-5.97-4.72-17.02,1.43-22.97,6.15-5.95,15.49-7.5,23.96-6.35,2.06-16.44,14.2-30.66,29.39-36.93,3.59.99,7.04,2.8,10.27,5.77,7.46,6.86,10.16,18.41,6.55,27.89,7.97-4.88,18.98-1.84,25.45,4.88,6.49,6.74,9.22,16.24,10.45,25.49,9.5-5.75,22.79-4.36,30.9,3.27,4.74,4.44,7.48,10.81,7.87,17.32Z"/>
  <path class="cls-3" d="M190.11,63.09c-5.97-8.84-19.63-11.23-28.25-4.94-4.4-6.36-11.41-10.54-18.77-12.93-.75-.24-1.51-.46-2.27-.67-.32,1.19-.58,2.4-.79,3.62,9,4.28,16.92,10.36,21.62,19.85,7.33-7.14,19.15-9.18,28.45-4.92Z"/>
  <path class="cls-3" d="M295.76,59.86c-3.73-1.61-7.95-1.47-12.02-1.31-10.77.42-23.05,3.04-33.45,1.74,1.16-1.55,2.09-3.23,2.62-5.1.83-2.89.64-5.99.02-8.93-2.69-12.72-20.72-29.53-33.92-19.92-7.04-8.75-16.22-14.84-29.84-16.54-6.88-.56-13.73.69-20.05,3.33,3.59.99,7.04,2.8,10.27,5.77,7.46,6.86,10.16,18.41,6.55,27.89,7.97-4.88,18.98-1.84,25.45,4.88,6.49,6.74,9.22,16.24,10.45,25.49,9.5-5.75,22.79-4.36,30.9,3.27,4.74,4.44,7.48,10.81,7.87,17.32.4-.1.81-.24,1.21-.36,3.33-1.07,6.66-2.62,8.77-5.39,2.1-2.8,2.54-7.08.18-9.64,8.79,1.13,17.99-.99,25.39-5.89,2.6-1.71,5.16-4.01,5.71-7.08.71-4.01-2.36-7.89-6.11-9.52Z"/>
  <g>
    <path class="cls-3" d="M322.37,121.1c-.14.94-.48,1.89-1.2,2.5-.74.62-1.75.79-2.69.93-12.02,1.75-24.1,2.42-36.24,2.57-1.97-5.25-6.29-9.6-11.59-11.49-6.34-2.25-13.83-.82-18.91,3.57.03-3.93-2.9-7.68-6.72-8.62-3.89-.94-7.78,1.1-9.89,4.34-.98-6.41-3.05-10.37-6.07-12.58,3.22-.53,6.6-.1,9.57,1.27-.43-4.83,2.73-9.51,6.98-11.86,8.88-4.94,20.11-1.29,27.99,3.96,7.59,5.02,14.37,13.95,24.58,12.67,3.93-.5,7.85-.55,11.74.22,3.19.63,6.38,1.77,8.83,3.89,2.47,2.14,4.1,5.42,3.62,8.64Z"/>
    <path class="cls-2" d="M282.24,127.1c-31.01.43-62.28-2.33-92.97,2.19-1.54.22-3.15.48-4.66,0-1.49-.48-2.81-1.92-2.57-3.46.12-.82.63-1.53,1.18-2.16,3.75-4.25,9.5-6.34,15.15-6.84,5.64-.48,11.31.46,16.92,1.42.07-5.47,3.05-10.78,7.66-13.7,1.85-1.15,3.94-1.92,6.1-2.25,3.02,2.21,5.09,6.17,6.07,12.58,2.11-3.24,6-5.28,9.89-4.34,3.82.94,6.75,4.7,6.72,8.62,5.07-4.39,12.57-5.81,18.91-3.57,5.3,1.89,9.62,6.24,11.59,11.49Z"/>
  </g>
  <path class="cls-1" d="M70.21,66.83c-6.35,3.38-9.5,12.23-5.79,18.39-9.12-4.93-22.17.75-24.78,10.78-.44,1.68-.41,3.86,1.11,4.69.69.38,1.51.31,2.3.34,53.66,2.11,71.09,1.01,88.46,1.21,1.47-2.92.69-6.75-1.7-8.97-2.39-2.22-6.16-2.75-9.13-1.41-1.17.53-2.32,1.34-3.6,1.25-1.92-.15-3.02-2.15-4.26-3.62-4.91-5.85-11.2-3.18-16.3.12-1.06-6.89.68-11.95-4.68-17.97-5.23-5.88-14.42-8.64-21.64-4.8Z"/>
  <path class="cls-3" d="M315.93,73.82l-.67-.04c.67-11.73-11.05-21.32-22.42-22.91-12-1.69-23.97,2.79-34.53,6.73l-.56.21.12-.59c2.16-11.06-1.4-22.41-9.05-28.93-8.41-7.16-21.4-7.37-28.95-.47l-.5.46-.06-.68c-.91-10.35-8.47-19.76-18.38-22.89-9.91-3.12-21.5.26-28.18,8.23l-.52-.43c6.85-8.17,18.73-11.64,28.9-8.44,9.96,3.13,17.6,12.46,18.79,22.81,7.85-6.67,20.87-6.32,29.35.9,7.7,6.56,11.35,17.87,9.38,28.98,10.5-3.92,22.35-8.24,34.3-6.56,11.62,1.62,23.71,11.11,23,23.61Z"/>
  <path class="cls-3" d="M317.72,119.63c-1.34,0-2.67-.14-3.92-.27l.07-.67c2.42.25,5.16.54,7.61-.25,2.15-.69,4.48-2.63,4.52-5.24.02-1.22-.47-2.53-1.47-3.9-3.66-5.04-10.28-6.56-15.19-6.95-5.97-.47-12.13.29-17.81,2.2l-.28.09-.13-.27c-2.68-5.65-7.9-9.91-13.97-11.4-6.07-1.5-12.67-.13-17.67,3.63l-.41-.54c5.15-3.89,11.97-5.29,18.23-3.75,6.17,1.52,11.49,5.8,14.29,11.5,5.68-1.87,11.83-2.62,17.79-2.14,5.05.4,11.87,1.98,15.68,7.23,1.08,1.49,1.62,2.93,1.59,4.3-.04,2.94-2.62,5.11-4.99,5.87-1.29.41-2.63.55-3.97.55Z"/>
  <path class="cls-3" d="M164.11,60.36l.11-.52c1.16-5.57-1.51-11.79-6.35-14.78-4.84-2.99-11.59-2.6-16.06.92l-.42-.53c4.68-3.69,11.76-4.1,16.83-.97,4.92,3.04,7.7,9.27,6.75,14.97l2.34-.55.16.66-3.36.79Z"/>
  <path class="cls-3" d="M258.91,66.32l-.48-.47,2.67-3.06c3.39-4.74,5.21-11.35,5.56-20.07.2-5.07.04-11.58-3.05-16.9-3.34-5.76-9.96-9.79-18.16-11.06-12.26-1.9-25.1,2.59-33.51,11.71l-.49-.46c8.56-9.28,21.62-13.85,34.11-11.92,8.41,1.3,15.2,5.45,18.64,11.39,3.17,5.47,3.34,12.1,3.14,17.26-.34,8.65-2.13,15.27-5.44,20.09l.04.03-.29.34c-.82,1.14-1.72,2.17-2.72,3.11Z"/>
  <path class="cls-2" d="M278.12,123.67l-.67-.06c.41-4.53-1.66-9.24-5.28-12-3.62-2.76-8.72-3.5-12.97-1.89-.21.08-.43.17-.65.25-1.41.56-3.01,1.2-4.48.54-.64-.29-1.13-.77-1.6-1.24-.15-.15-.3-.3-.46-.44-2.75-2.53-7.61-2.72-11.3-.44-3.04,1.88-5.46,5.17-7.18,9.78l-.63-.24c1.78-4.76,4.28-8.16,7.46-10.12,3.43-2.12,8.7-2.62,12.11.52.16.15.32.31.48.46.45.45.87.87,1.4,1.11,1.2.54,2.6-.02,3.96-.55.22-.09.44-.18.66-.26,4.47-1.69,9.82-.91,13.62,1.99,3.8,2.9,5.98,7.84,5.54,12.6Z"/>
  <path class="cls-2" d="M262.98,87.54c-1.08-8.24-7.77-15.46-15.9-17.18-6.28-1.33-18.13-1.47-23.62,2.44-.72.51-1.31,1.08-1.75,1.71-.39,2.27-.92,4.37-1.48,6.2l-.66-.14.45-3.58c.13-1,.48-1.92,1.04-2.75.94-5.56,1.06-12.19-1.26-18.67-3.01-8.42-9.98-14.82-17.76-16.32-8.61-1.66-17.69,3.23-20.27,10.89l-.64-.22c2.68-7.97,12.12-13.05,21.03-11.33,8.01,1.54,15.18,8.12,18.27,16.76,2.21,6.18,2.25,12.48,1.46,17.89.34-.34.73-.67,1.16-.98,5.65-4.02,17.75-3.9,24.15-2.55,7.61,1.61,14,7.89,15.96,15.39l.62.04-.16,2.39-.67.02Z"/>
  <path class="cls-2" d="M106.38,83.22c-2.54-7.15-2.92-15.13-1.04-22.49,1.9-7.47,7.54-14.78,14.76-14.78.24,0,.47,0,.71.02,6.66.44,11.22,6.68,14.45,12.07l-.58.35c-3.14-5.25-7.57-11.32-13.92-11.74-7.18-.46-12.89,6.81-14.78,14.25-1.84,7.22-1.48,15.07,1.02,22.09l-.63.23Z"/>
  <path class="cls-2" d="M183.14,137.05c-2.49,0-4.97-.24-7.4-.87-1.8-.46-2.85-1.2-3.22-2.27-.34-.97-.01-2.01.35-2.9,4.65-11.5,18.63-18.24,30.52-14.74l-.19.65c-11.59-3.42-25.19,3.15-29.71,14.35-.33.81-.6,1.67-.33,2.43.29.84,1.19,1.44,2.75,1.84,6.95,1.77,14.28.41,21.38-.91.98-.18,1.95-.36,2.92-.53,16.45-2.92,33.19-3.4,49.78-1.42l-.08.67c-16.52-1.98-33.21-1.5-49.59,1.41-.97.17-1.94.35-2.91.53-4.7.87-9.51,1.77-14.26,1.77Z"/>
  <path class="cls-1" d="M46.79,96.2c-1.63,0-3.26-.14-4.85-.44-2.51-.46-4.05-1.45-4.56-2.95-.35-1.04-.12-2.15.11-3,2.2-7.87,10.99-13.16,18.97-11.52-.29-6.86,1.85-15.71,8.91-18.74,2.89-1.24,6.38-1.4,10.37-.45,6.89,1.63,12.95,6.06,16.21,11.84,3.46,6.14,3.69,13.93.6,19.86l-.6-.31c2.99-5.73,2.76-13.27-.59-19.21-3.17-5.62-9.06-9.93-15.77-11.52-3.84-.91-7.19-.77-9.94.42-6.89,2.97-8.87,11.83-8.48,18.53l.03.45-.44-.11c-7.76-1.86-16.45,3.26-18.6,10.94-.21.76-.42,1.74-.13,2.6.43,1.25,1.79,2.09,4.04,2.5,4.86.89,10.07.37,14.65-1.47l.25.63c-3.2,1.29-6.7,1.94-10.18,1.94Z"/>
  <path class="cls-1" d="M137.48,104.29c-.19,0-.38-.01-.56-.03l-1.84-.22,4.84-1.19c.3-.2.6-.44.87-.72,1.39-1.39,2.14-3.5,1.91-5.36-.49-4-4.03-6.86-6.09-8.2-5.78-3.76-14.56-4.53-18.69.79l-.23.29-.27-.25c-3.45-3.22-9.07-2.38-12.62.06-3.92,2.69-6.37,7.04-8.53,10.87l-.59-.33c2.09-3.7,4.68-8.31,8.74-11.09,3.67-2.52,9.47-3.41,13.19-.23,4.5-5.39,13.31-4.6,19.37-.66,2.64,1.72,5.9,4.62,6.39,8.68.25,2.06-.57,4.39-2.1,5.92-.25.25-.51.48-.79.67l.03.12-.32.08c-.84.53-1.76.81-2.7.81Z"/>
  <path class="cls-1" d="M38.4,99.59c-.51,0-1.04-.09-1.57-.28-1.79-.64-3.51-2.33-4.39-4.31-1.91-4.3-1.26-9.69,1.6-13.42,2.78-3.62,7.63-5.63,12.16-5.07,0-6.47,4.88-12.75,11.52-14.72,6.18-1.84,13.61-.01,18.93,4.65,4.76,4.17,7.99,10.43,9.07,17.63l-.67.1c-1.06-7.04-4.21-13.15-8.85-17.22-5.15-4.51-12.33-6.27-18.29-4.51-6.49,1.93-11.23,8.14-11.03,14.45v.41s-.39-.06-.39-.06c-4.41-.7-9.2,1.21-11.92,4.75-2.72,3.54-3.33,8.66-1.52,12.74.81,1.82,2.37,3.37,4,3.94,1.03.37,2,.33,2.87-.12l.31.6c-.57.29-1.19.44-1.83.44Z"/>
</svg>