<?xml version="1.0" encoding="UTF-8"?>
<svg id="OBJECTS" xmlns="http://www.w3.org/2000/svg" viewBox="0 0 358.03 139.95">
  <defs>
    <style>
      .cls-1 {
        fill: #bf7ba0;
      }

      .cls-1, .cls-2, .cls-3 {
        stroke-width: 0px;
      }

      .cls-2 {
        fill: #e5bbc1;
      }

      .cls-3 {
        fill: #fff;
      }
    </style>
  </defs>
  <path class="cls-2" d="M45.15,91.66c-5.74-1.67-12.26-.74-17.07,2.81-4.81,3.55-7.66,9.73-6.85,15.65-3.97-.59-8.04-1.19-11.98-.38-3.94.8-7.77,3.3-9.04,7.11-.17.52-.29,1.08-.14,1.61.35,1.21,1.85,1.58,3.11,1.73,15.78,1.84,35.4,2.58,50.65-2.71,13.64-4.73.1-23.26-8.68-25.82Z"/>
  <path class="cls-3" d="M336.67,120.52c3.76-.09,7.69-.23,10.95-2.11,3.26-1.88,5.49-6.1,3.87-9.49-1.52-3.19-5.51-4.22-9.03-4.55-6.12-.58-12.33-.16-18.32,1.26.64-4.95-3.3-10.03-8.26-10.63-4.95-.6-10,3.39-10.56,8.35,1.38-3.74.12-8.13-2.54-11.09-2.67-2.96-6.54-4.62-10.47-5.29-4-.68-8.66-.15-11.21,3-1.32,1.64-1.88,3.74-2.52,5.75-3.87,12.24-15.62,26.2,5.06,26.11,17.67-.08,35.37-.87,53.04-1.31Z"/>
  <path class="cls-3" d="M288.35,107.04c-3.19-5.24-12.44-6.27-16.05-.93,2.5-7.6,3.86-15.9,1.6-23.57-2.25-7.67-8.82-14.47-16.81-15-7.98-.52-16.08,7.01-14.5,14.85-6.94-7.41-17.74-10.98-27.73-9.19,14.5-8.4,22.6-26.57,19.14-42.98-2.07-9.8-9.15-20.06-18.31-26.21,5.52.33,10.93,1.65,15.94,4.08,8.93,4.34,16.04,12.45,19.34,21.79,1.44,4.07,3.3,10.63,1.78,14.92-1.36,3.86-5.38,5.59-6.54,9.78,5.73-6.77,15.2-9.27,23.67-6.83,8.49,2.45,15.32,9.12,19.57,16.87,7.16,13.04,7.24,30.16-1.1,42.4Z"/>
  <path class="cls-2" d="M290.65,117.38c-2.36,1.52-5.26,1.92-8.04,2.29-15.63,2.04-31.81,4.04-46.92-.48-3.52-1.05-7.21-2.46-10.77-1.53-1.87.5-3.52,1.6-5.17,2.61-19.63,12.02-45.75,12.62-65.9,1.49-3.5-1.93-6.92-4.22-10.84-4.95-3.71-.69-7.51.07-11.21.75-26.97,4.92-54.81,4.99-81.8.24-1.08-.19-2.21-.42-3.05-1.13-2.74-2.34.13-6.72,3.07-8.78,11.6-8.16,26.32-11.77,40.39-9.89-1.58-8.14,3.66-16.48,10.82-20.66,7.15-4.19,15.8-4.96,24.09-4.68-.23-7.64,3.74-15.26,10.11-19.46s14.95-4.82,21.86-1.59c4.61-15.69,13.91-30.36,27.62-39.29,9.03-5.87,20.07-8.93,30.76-8.28,9.16,6.14,16.25,16.4,18.31,26.21,3.46,16.4-4.64,34.58-19.14,42.98,9.99-1.79,20.79,1.78,27.73,9.19-1.58-7.84,6.53-15.37,14.5-14.85,7.99.53,14.56,7.32,16.81,15,2.26,7.67.9,15.97-1.6,23.57,15.71-15.95,17.58,1.95,17.99,1.42,1.51.21,2.98,1.2,3.49,2.66.91,2.65-.75,5.65-3.12,7.18Z"/>
  <path class="cls-1" d="M121.46,90.17c8.41-.18,16.47,6.31,18.1,14.56,5.48-1.18,11.52.66,15.41,4.72,3.88,4.05,5.47,10.16,4.06,15.59-37.11-5.33-74.95,5.71-112.23,1.75-4.95-.53-10.91-2.21-12.05-7.06-.82-3.47,1.36-6.91,3.72-9.58,8.79-9.96,21.26-15.54,34.4-16.39,13.61-.88,20.22,3.82,31,11.39,2.38-7.98,8.74-14.79,17.61-14.98Z"/>
  <path class="cls-3" d="M306.13,134.51c-1.62,2.47-4.02,3.26-6.3,3.69-1.35.26-2.72.42-4.08.53-.06-.22-.12-.42-.18-.63-2.25-7.35-8.85-13.81-16.55-13.79-5.14.02-9.83,2.78-14.13,5.62-.92.61-2.16,1.22-3.03.56-.48-.37-.66-.99-.87-1.55-.67-1.79-1.91-3.09-3.45-3.94,2.44-.5,4.91-.32,7.35-.44.65-.03,1.34-.12,1.81-.79.48-.7.55-1.8.73-2.77.56-3.18,2.47-5.5,4.53-6.55,2.06-1.05,4.29-1.03,6.46-.96,5.65.18,9.07,2.53,13.75,6.58,4.2,3.64,10.74,1.23,14.14,5.21,1.81,2.12,1.46,6.77-.16,9.23Z"/>
  <path class="cls-2" d="M75.52,122.12c-4.63-3-10.76-3.56-15.85-1.43-3.33,1.39-6.27,3.98-7.47,7.38-1.2,3.4-.37,7.59,2.44,9.84,2.41,1.93,5.75,2.2,8.83,1.98,9.68-.71,19.14-5.45,28.71-3.8,7.38,1.27,16.68-2.63,5.31-6.08-4.12-1.25-8.53.4-12.64-1.13-3.61-1.34-6.15-4.7-9.32-6.76Z"/>
  <path class="cls-2" d="M295.74,138.73c-3.18.25-6.38.17-9.56.09-10.93-.28-21.85-.56-32.77-.84-1.8-.05-4.13-.76-4.36-3.47-.1-1.09.22-2.18.62-3.1,1.53-3.5,4.25-5.43,6.95-6.18.3-.09.61-.15.91-.22,1.55.86,2.78,2.16,3.45,3.94.21.56.39,1.18.87,1.55.88.66,2.11.04,3.03-.56,4.3-2.84,8.99-5.6,14.13-5.62,7.7-.02,14.3,6.43,16.55,13.79.07.21.12.41.18.63Z"/>
  <path class="cls-3" d="M197.63,83.49c1.91-5.68,7.73-9.8,13.72-9.71-5.99,3.57-10.46,9.61-12.12,16.39-3.31-.79-4.76-4.57-7.05-7.09-3.62-4-9.16-4.6-14.12-5.58,6.65-3.86,17.49-3,19.57,5.99Z"/>
  <path class="cls-2" d="M103.15,114.08c-6.37-5.6-15.45-7.96-23.75-6.17,2.21-3.2,6.62-4.24,10.45-3.54,3.82.7,7.22,2.81,10.51,4.89-1.17-.74,2.34-6.61,2.97-7.1,1.58,3.01-.15,8.52-.18,11.92Z"/>
  <path class="cls-3" d="M293.48,85.95h-.5c.06-9.21-1.54-17.25-4.74-23.89-3.78-7.84-10.05-13.89-17.2-16.6-8.01-3.03-17.05-1.71-23.03,3.36-2.59,2.2-4.54,4.99-5.62,8.07l-.47-.17c1.12-3.17,3.11-6.03,5.77-8.29,6.11-5.19,15.35-6.54,23.53-3.45,7.27,2.75,13.64,8.89,17.48,16.85,3.23,6.71,4.85,14.82,4.79,24.11Z"/>
  <path class="cls-3" d="M289.7,88.29l.21-2.86.5.04-.08,1.02c4.58-7.05,5.93-16.27,3.53-24.32-2.5-8.34-9.08-15.53-17.17-18.74-3.71-1.47-7.96-2.27-12.65-2.37-5.68-.12-11.27.74-16.64,2.58l-.16-.47c5.43-1.86,11.09-2.73,16.82-2.61,4.75.1,9.06.92,12.82,2.41,8.23,3.27,14.93,10.57,17.47,19.06,2.54,8.49.96,18.27-4.12,25.52l-.52.75Z"/>
  <path class="cls-3" d="M346.58,114.23c-.48,0-.96-.02-1.44-.05l.03-.5c2.18.14,4.37-.05,6.5-.54.53-.12,1.13-.29,1.56-.65.46-.39.76-1.04.85-1.84.21-1.88-.7-3.9-2.43-5.41-1.48-1.3-3.29-2.1-5.56-2.9-2.72-.96-5.93-1.95-9.3-1.86-3.45.07-6.55,1.34-8.48,3.47l-.4.44-.03-.6c-.21-3.86-1.42-7.62-3.5-10.87-.38-.6-.82-1.2-1.41-1.57-.77-.48-1.77-.54-2.55-.52-7.49.09-14.46,5.92-15.86,13.29l-.49-.09c1.44-7.59,8.62-13.6,16.35-13.69.85-.01,1.94.05,2.82.6.67.42,1.15,1.08,1.56,1.73,2.03,3.17,3.25,6.8,3.54,10.55,2.04-1.98,5.08-3.15,8.44-3.22,3.43-.08,6.72.92,9.47,1.89,2.32.82,4.18,1.64,5.73,2.99,1.85,1.62,2.82,3.8,2.6,5.84-.07.66-.31,1.57-1.02,2.17-.52.44-1.19.62-1.77.76-1.71.4-3.46.6-5.2.6Z"/>
  <path class="cls-3" d="M262.52,125.48l-.5-.04c.65-7.38,6.38-13.9,13.62-15.5,1.71-.38,3.15-.4,4.41-.07,1.47.39,2.73,1.29,3.66,2.02,2.6,2.07,4.81,4.66,6.44,7.56l.26-.07.33,1.22-.46.18c-1.63-3.28-4.01-6.21-6.88-8.49-.89-.71-2.1-1.57-3.48-1.93-1.17-.31-2.54-.29-4.17.07-7.03,1.55-12.59,7.88-13.22,15.05Z"/>
  <path class="cls-3" d="M199.78,84.4l-.5-.04c.23-4.05-1.97-8.15-5.46-10.21-3.49-2.06-8.15-1.99-11.58.18-1.56.98-2.86,2.34-4.11,3.66l-.36-.35c1.28-1.34,2.6-2.72,4.21-3.73,3.58-2.26,8.44-2.33,12.1-.18,3.24,1.91,5.41,5.49,5.69,9.23h.14s-.13,1.45-.13,1.45Z"/>
  <path class="cls-2" d="M120.72,79.3l-.5-.03c.36-6.82.74-13.88,3.34-20.38,2.91-7.29,8.37-12.44,14.61-13.78,3.71-.8,7.86.07,11.11,2.31,2.3,1.59,3.91,3.71,4.63,6.09,1.54-11.88,4.21-21.15,8.36-29.09,5.35-10.24,13.32-17.98,22.46-21.79,10.35-4.31,22.32-3.23,30.5,2.77l-.29.4c-8.05-5.9-19.83-6.96-30.01-2.71-9.03,3.77-16.92,11.43-22.21,21.56-4.28,8.2-6.98,17.84-8.48,30.34l-.22,1.82-.28-1.81c-.43-2.8-2.11-5.34-4.74-7.16-3.14-2.17-7.15-3-10.72-2.23-6.08,1.31-11.41,6.35-14.25,13.48-2.21,5.54-2.8,11.51-3.15,17.39h.03s-.19,2.84-.19,2.84Z"/>
  <path class="cls-2" d="M4.22,117.5c-.66,0-1.3-.1-1.88-.3-1.21-.42-2.05-1.27-2.37-2.38-.46-1.6.29-3.25,1-4.35,3.21-4.99,10.25-6.96,15.61-4.48-1.04-4.45-.19-9.42,2.36-13.72,2.65-4.47,6.82-7.68,11.44-8.79,4.62-1.11,9.79-.16,14.19,2.61,4.4,2.77,7.49,7.03,8.48,11.67l-.49.1c-.96-4.51-3.97-8.65-8.26-11.35s-9.32-3.63-13.81-2.55c-4.49,1.08-8.54,4.2-11.13,8.56-2.59,4.36-3.38,9.41-2.18,13.87l.15.55-.51-.27c-5.19-2.73-12.27-.87-15.45,4.06-.65,1.01-1.34,2.52-.93,3.94.35,1.22,1.31,1.79,2.05,2.05,1.6.56,3.71.25,5.14-.76l.29.41c-1.03.73-2.4,1.12-3.71,1.12Z"/>
  <path class="cls-2" d="M99.08,133.5l-.17-2.04.5-.04.04.43c.14-.73-.1-1.54-.52-2.11-.55-.76-1.43-1.33-2.75-1.8-3.15-1.14-6.75-1.08-9.87.15l-.29.11-.05-.3c-.5-2.85-2.5-5.5-5.95-7.88-2.74-1.9-7.07-4.1-12.02-4.03-4.56.09-8.72,2.29-10.85,5.73-1.15,1.85-1.72,4.07-1.6,6.25l-.5.03c-.12-2.28.47-4.6,1.67-6.54,2.22-3.59,6.54-5.87,11.27-5.97,5.09-.1,9.51,2.19,12.31,4.12,3.44,2.38,5.49,5.04,6.1,7.91,3.16-1.17,6.77-1.19,9.94-.04,1.42.51,2.37,1.14,2.98,1.98.7.95.97,2.48.15,3.54l-.39.51Z"/>
  <path class="cls-2" d="M130.61,115.33l-.29-.19c-3.96-2.55-9.16-3.12-13.58-1.49l-.17-.47c4.46-1.65,9.68-1.13,13.73,1.35,1.77-6.51,7.85-11.53,14.6-11.99.45-.03.93-.1,1.05-.41,0-.01.02-.05-.03-.11-.08-.09-.22-.13-.26-.12h-.46c0-.22.09-.38.26-.46.25-.12.59.01.78.2.2.19.26.44.17.67-.26.64-1.08.7-1.48.73-6.65.45-12.63,5.47-14.23,11.94l-.08.34Z"/>
  <path class="cls-2" d="M285.42,108.5l-1-3.49.48-.14.48,1.68c.53-2.26.92-4.61.52-6.86-.42-2.33-2.01-4.97-4.62-5.61-3.12-.77-6.18,1.58-8.21,3.41l-1.23,1.11.85-1.42c4.59-7.68,5.12-17.5,1.37-25.63-2.03-4.4-5.06-7.57-8.54-8.92-2.32-.91-5.16-1.13-8.41-.67-5.52.78-10.31,3.17-13.5,6.74-3.57,4.01-4.94,9.59-3.48,14.23l-.48.15c-1.51-4.8-.1-10.57,3.59-14.71,3.26-3.66,8.16-6.11,13.8-6.9,3.34-.47,6.26-.23,8.67.7,3.6,1.4,6.73,4.66,8.81,9.18,3.61,7.84,3.32,17.23-.7,24.85,2.05-1.66,4.76-3.29,7.58-2.6,2.83.69,4.55,3.51,4.99,6.01.47,2.66-.11,5.4-.75,7.99l-.22.91Z"/>
  <path class="cls-2" d="M116.39,79.69c-2.81-8.39-2.66-16.92.42-24.02,3.44-7.91,10.71-13.6,18.53-14.51,8.45-.98,17.08,4.14,19.67,11.67l-.47.16c-2.52-7.31-10.92-12.29-19.14-11.34-7.65.89-14.77,6.47-18.14,14.21-3.04,6.98-3.18,15.38-.41,23.66l-.47.16Z"/>
  <path class="cls-3" d="M166.47,93.68l-.74-1.02c-2.31-3.18-6.04-5.18-9.96-5.37-3.93-.18-7.82,1.45-10.43,4.39l-.37-.33c2.71-3.05,6.76-4.74,10.83-4.55,3.75.18,7.32,1.96,9.73,4.81-.22-2.56.99-5.42,3.44-8,4.87-5.15,12.25-7.68,19.26-6.6l-.08.49c-6.85-1.05-14.06,1.42-18.82,6.45-1.25,1.32-4.06,4.79-3.16,8.51l.3,1.23Z"/>
  <path class="cls-3" d="M342.69,118.3l-.11-.49c3.11-.72,6.24-1.54,9.28-2.45,1.9-.57,4.02-1.31,5.02-3.01.62-1.05.79-2.43.51-4.11-.62-3.71-3.07-7.33-6.9-10.2-2.27-1.7-5.8-3.69-9.72-3.53-6.21.26-10.93,5.62-14.86,10.63l-.39-.31c4-5.09,8.81-10.55,15.23-10.82,4.05-.16,7.7,1.88,10.04,3.63,3.93,2.94,6.45,6.68,7.09,10.51.3,1.8.11,3.29-.57,4.45-1.09,1.86-3.32,2.65-5.31,3.24-3.06.91-6.19,1.74-9.31,2.46Z"/>
  <path class="cls-1" d="M104.2,104.93c-1.54-5.97,1.21-12.84,6.69-16.71,4.86-3.43,11.69-4.51,18.25-2.87,2.34.58,4.01,1.37,5.25,2.48,1.23,1.1,2.19,2.63,2.94,4.7,1.25,3.47,1.51,7.37.74,10.97l-.49-.1c.75-3.52.49-7.31-.73-10.7-.71-1.99-1.63-3.46-2.8-4.5-1.18-1.05-2.78-1.8-5.04-2.37-6.42-1.6-13.09-.56-17.84,2.79-5.32,3.75-7.99,10.4-6.5,16.17l-.48.12Z"/>
  <path class="cls-1" d="M158.86,124.17l-.42-.26,1.5-3.08.12.06c.67-1.9.88-4.02.58-6.14-.47-3.34-2.15-6.32-4.61-8.17-2.46-1.85-5.79-2.64-9.13-2.17-3.34.47-6.32,2.15-8.17,4.61l-.4-.3c1.93-2.56,5.03-4.32,8.5-4.8,3.46-.49,6.93.34,9.5,2.27,2.56,1.93,4.32,5.03,4.8,8.5.49,3.47-.34,6.93-2.27,9.5Z"/>
  <path class="cls-1" d="M48.88,104.97c-.19-1.74.98-3.23,2.26-4.57,1.89-1.97,3.89-3.88,5.95-5.66,2.07-1.8,4.35-3.6,7.01-4.61,4.22-1.61,8.97-1.08,13.48-.27,2.71.49,5.84,1.13,8.61,2.57,3.01,1.57,5.14,3.9,6.01,6.57.16.5.33.74.53.74h0s-.04-.12-.07-.16c.01.01.05.03.1.03.06,0,.09-.03.1-.04l-.44-.24c.12-.22.31-.25.44-.2.25.08.37.43.33.7-.04.24-.21.4-.45.41h-.03c-.65,0-.91-.78-1-1.08-.83-2.54-2.87-4.77-5.77-6.28-2.7-1.41-5.78-2.04-8.46-2.52-4.43-.8-9.1-1.32-13.21.25-2.59.99-4.83,2.76-6.86,4.52-2.05,1.78-4.04,3.67-5.92,5.63-1.2,1.26-2.3,2.63-2.13,4.17l-.5.05Z"/>
  <path class="cls-1" d="M105.54,102.02c-.41-3.43.89-7.05,3.38-9.45,2.48-2.38,6.16-3.75,11.25-4.2,1.5-.13,3.47-.23,5.39.13,5.28.99,9.61,5.57,10.29,10.9l-.5.06c-.66-5.12-4.81-9.52-9.88-10.47-1.86-.35-3.78-.25-5.25-.12-4.98.43-8.56,1.76-10.95,4.06-2.38,2.29-3.62,5.75-3.23,9.03l-.5.06Z"/>
  <path class="cls-1" d="M41.62,123.6c-3.87,0-7.76-1.13-10.94-3.28-.88-.6-2.08-1.55-2.3-2.92-.13-.83.12-1.65.41-2.4,2.92-7.5,11.11-12.51,19.11-11.75.48-9.09,10.8-16.52,19.9-17.54,8.87-1,18.31,4.39,22.44,12.8l-.45.22c-4.04-8.23-13.27-13.5-21.94-12.52-8.99,1.01-19.19,8.38-19.47,17.33v.27s-.28-.03-.28-.03c-7.88-.88-15.98,4.02-18.86,11.41-.27.69-.5,1.42-.39,2.14.19,1.18,1.28,2.04,2.08,2.59,4.63,3.13,10.81,4.04,16.14,2.38l.15.48c-1.81.57-3.72.84-5.63.84Z"/>
</svg>