<?xml version="1.0" encoding="UTF-8"?>
<svg id="OBJECTS" xmlns="http://www.w3.org/2000/svg" viewBox="0 0 358.03 139.95">
  <defs>
    <style>
      .cls-1 {
        fill: #bf7ba0;
      }

      .cls-1, .cls-2, .cls-3 {
        stroke-width: 0px;
      }

      .cls-2 {
        fill: #e5bbc1;
      }

      .cls-3 {
        fill: #fff;
      }
    </style>
  </defs>
  <path class="cls-3" d="M187.32,70.15c-7.85,1.36-17.73-.82-26.03-1.13.56-2.29.21-4.8-1.09-6.78-1.91-2.94-5.74-4.46-9.14-3.65,5.28-7.91,4.89-19.2-.97-26.71-3.08-3.96-6.79-6.44-10.74-7.63,6.22-.69,12.75.65,18.27,3.67,8.72,4.8,15,13.4,18.12,22.85-.28-.87,8.19.62,8.91.97,3.32,1.6,5.18,4.11,6.65,7.37,3.2,7.07,2.54,9.94-3.98,11.05Z"/>
  <g>
    <path class="cls-3" d="M178.62,62.45c1.48-.32,3.02-.47,4.55-.53-1.51.18-3.04.35-4.55.53Z"/>
    <path class="cls-3" d="M345.23,53.86c-.26,2.1-2.51,3.29-4.48,4.05-14.06,5.46-29.12,8.35-44.2,8.5,1.57,7.37-3.43,14.85-9.95,18.62-6.52,3.76-14.25,4.62-21.73,5.42.9,4.11-1.29,8.17-4.65,10.85-3.46-3.8-9.25-5.61-14.13-3.83,5.22-3.39,10.65-6.99,13.65-12.44,3.01-5.46,2.58-13.34-2.58-16.8-4.97-3.33-11.93-1.2-16.55,2.61-.07-5.02-4.53-9.41-9.52-9.98s-10.04,2.26-12.72,6.52c-2.67,4.24-3.17,9.64-1.98,14.51-4.83-7.95-11.84-14.56-20.06-18.9,4.75.95,9.39,2.55,13.72,4.73,3.65-8.09,8.91-15.7,16.26-20.68.7-.48,1.41-.94,2.13-1.39,5-3.11,10.35-5.28,16.33-4.49,5.28.7,10.24,3.43,13.74,7.46,3.01,3.48,4.17,7.47,5.27,11.84.21.82.76,2.22,1.41,2.71,2.11-2.99,3.05-6.81,6.96-8.1,3.6-1.19,7.53-.53,11.23-.28,3.2.22,6.33-.01,9.52-.26,14.82-1.14,29.47-3.82,44.29-5.06,3.52-.29,8.51.91,8.07,4.42Z"/>
  </g>
  <path class="cls-2" d="M260.21,101.29c-1.35,1.09-2.89,1.94-4.49,2.48-5.59,1.89-11.68,1.04-17.54.31-51.16-6.31-102.92-.35-154.46.97-10.52.26-21.15.34-31.49-1.69,9.96-8.97,23.39-13.22,36.7-14.81,13.31-1.57,26.77-.73,40.17-.82,1.64,0,3.35-.04,4.84-.7,1.73-.75,3.01-2.25,4.34-3.57,7.94-7.85,20.3-10.86,30.95-7.56-1.94-3.6-.12-8.35,3.14-10.82,1.83-1.38,3.98-2.19,6.24-2.64,1.51-.18,3.04-.35,4.55-.53h.06c.26-.03.53-.03.79-.04,4.11-.1,8.25.26,12.28,1.1,8.22,4.34,15.23,10.95,20.06,18.9-1.19-4.87-.69-10.27,1.98-14.51,2.69-4.26,7.73-7.09,12.72-6.52s9.45,4.96,9.52,9.98c4.62-3.82,11.58-5.94,16.55-2.61,5.17,3.46,5.59,11.34,2.58,16.8-2.99,5.46-8.42,9.05-13.65,12.44,4.89-1.78,10.67.03,14.13,3.83Z"/>
  <path class="cls-3" d="M208.65,80.88c-2.98.8-5.97,1.65-8.7,3.07-2.73,1.42-5.22,3.48-6.65,6.22.41-3.68,2.25-7.2,5.09-9.57,2.84-2.37,6.67-3.55,10.35-3.09,2.78.35,5.94,1.76,7.39,4.25-2.74-1.11-4.44-1.69-7.48-.87Z"/>
  <path class="cls-1" d="M80.71,97.65c-1.9-5.14-6.42-9.24-11.73-10.62-5.31-1.38-11.25,0-15.41,3.58-2.06,1.77-3.76,4.28-3.59,6.99-2.29-1.28-5.27-1.21-7.5.17s-3.61,4.03-3.48,6.65c-2.17-1.35-4.68-2.42-7.21-2.06-2.53.36-5.01,2.61-4.75,5.14h70.98c1.86,0,4.59.52,6.39,0,2.59-.75,1.46-1.75-.3-3.46-2.6-2.52-5.87-4.98-9.29-6.21-1.2-.43-14.55-1.36-14.11-.19Z"/>
  <path class="cls-2" d="M161.29,69.02c-.57-.01-1.13-.03-1.69-.03-8.92-.03-17.85.32-26.72,1.32-19.55,2.19-39.01,7.4-58.6,5.61-2.69-.25-6.16-1.61-5.75-4.29.29-1.82,2.33-2.74,4.11-3.24,4.7-1.31,9.58-1.92,14.46-1.82,3.42-12.31,19.27-19.34,30.7-13.6-2.54-9.63,2.66-20.41,11.27-25.4,3.17-1.83,6.68-2.91,10.29-3.32,3.95,1.19,7.66,3.67,10.74,7.63,5.86,7.51,6.25,18.8.97,26.71,3.4-.81,7.23.72,9.14,3.65,1.29,1.98,1.64,4.49,1.09,6.78Z"/>
  <path class="cls-3" d="M213.92,66.31l-.62-.79c-3.66-4.63-11.22-5.52-15.86-1.88l-.45-.58c4.7-3.69,12.2-3.01,16.28,1.29.99-15.93,14.93-30.17,30.88-31.34,5.05-.37,9.49.57,12.83,2.71,7.47,4.79,8.96,14.99,6.42,23.67,6.28-10.03,12.74-14.4,19.69-13.31,2.88.45,5.45,1.89,7.94,3.28,1.07.59,2.17,1.21,3.27,1.74,11.18,5.32,25,2.4,35.09.28l.15.72c-10.19,2.15-24.15,5.09-35.55-.33-1.13-.54-2.24-1.16-3.32-1.76-2.43-1.36-4.95-2.77-7.7-3.19-7.43-1.16-14.36,4.33-21.19,16.79l-.65-.34c4.33-9.01,3.81-21.55-4.56-26.92-4.05-2.6-8.96-2.85-12.38-2.6-15.91,1.16-29.76,15.61-30.25,31.55l-.03,1Z"/>
  <path class="cls-3" d="M273.82,92.45c-3.88,0-7.75-.95-11.13-2.88l.36-.64c7.56,4.31,17.62,3.56,24.45-1.84,6.83-5.4,9.9-15,7.45-23.36l-.61-2.1,1.27,1.78c2.68,3.78,10.47,6.14,15.05,6.81,5.14.74,10.39-.32,13.88-1.18,3.2-.79,6.85-1.9,9.69-4.2,2.96-2.4,4.55-5.97,4.04-9.09l.72-.12c.55,3.38-1.13,7.22-4.3,9.78-2.95,2.39-6.7,3.54-9.97,4.35-3.56.88-8.9,1.96-14.17,1.19-4.22-.61-11.11-2.65-14.51-5.93,1.77,8.26-1.43,17.39-8.08,22.65-4,3.16-9.07,4.78-14.14,4.78Z"/>
  <path class="cls-3" d="M189.15,56.74c-.13-3.52-2.11-7.03-5.3-9.38-3.19-2.35-7.12-3.21-10.53-2.29l-.65.17.2-.64c1.08-3.38.27-7.42-2.17-10.81-1.95-2.7-4.89-5.03-9.01-7.14-3.96-2.03-11.5-4.92-17.55-1.47l-.36-.64c6.35-3.63,14.16-.65,18.25,1.45,4.22,2.17,7.25,4.58,9.27,7.37,2.43,3.37,3.33,7.38,2.45,10.85,3.47-.72,7.36.21,10.53,2.55,3.36,2.48,5.46,6.2,5.59,9.94l-.73.03Z"/>
  <path class="cls-3" d="M186.19,88.68l-.73-.11c.71-4.79,4.03-9.16,8.45-11.15,4.42-1.98,9.89-1.55,13.94,1.1.28.18.64.37.86.32-.02-.01-.04-.03-.06-.03.02,0,.1,0,.17-.06.07-.06.09-.14.09-.17l-.73.11c-.05-.34.14-.53.32-.59.33-.11.73.13.91.43.17.28.12.6-.11.8-.65.58-1.55-.01-1.85-.21-3.85-2.52-9.04-2.93-13.24-1.04-4.19,1.88-7.34,6.04-8.02,10.58Z"/>
  <path class="cls-3" d="M308.67,57.39l-.51-.53c7.22-6.97,16.16-12,25.85-14.55,5.12-1.35,9.17-1.58,12.74-.73,4.59,1.09,8.32,4.29,9.49,8.15l-.7.21c-1.1-3.61-4.61-6.61-8.96-7.65-3.45-.82-7.38-.59-12.38.73-9.58,2.52-18.4,7.49-25.53,14.37Z"/>
  <path class="cls-2" d="M56.61,70.85l-.34-.65c9.44-4.95,20.67-6.11,30.92-3.21-1.62-5.95.84-12.9,5.9-16.43,5.02-3.5,12.32-3.44,17.34.06-.64-8.06,1.44-15.31,5.75-20.01,4.83-5.26,14.12-7.59,20.25-2.68l-.46.57c-5.8-4.66-14.64-2.42-19.25,2.6-4.32,4.7-6.32,12.08-5.49,20.26l.09.86-.68-.54c-4.77-3.78-12.14-4.01-17.13-.53-5,3.48-7.33,10.47-5.43,16.26l.22.67-.67-.2c-10.24-3.09-21.54-2.01-31.02,2.97Z"/>
  <path class="cls-2" d="M228.37,120.69l-.16-.46c-1.84-5.19-6.74-9.59-13.12-11.78-5.81-1.99-12.21-2.13-18.25-2.11-6.12.02-12.37.19-18.42.36-19.72.54-40.12,1.1-59.6-3.4l.16-.71c19.39,4.47,39.74,3.91,59.42,3.38,6.05-.16,12.3-.34,18.43-.36,6.11-.04,12.56.12,18.49,2.15,6.41,2.19,11.39,6.57,13.41,11.78,9.19-6.22,21.99-6.4,31.33-.39l-.4.62c-9.23-5.94-21.93-5.68-30.9.64l-.4.28Z"/>
  <path class="cls-2" d="M125.3,90.54l-.5-.54c5.14-4.79,10.96-10.22,18.09-12.8,6.18-2.23,15.01-2.07,20.3,3.38l.18-2.25.73.06-.32,3.96-.57-.67c-4.97-5.8-13.89-6.03-20.07-3.8-6.99,2.53-12.75,7.9-17.84,12.64Z"/>
  <path class="cls-2" d="M253.62,87.41c-.13,0-.26,0-.39,0l.03-.73c2.73.14,5.5-1.06,7.65-3.23,2.31-2.33,3.59-5.52,3.44-8.53-.3-5.87-5.57-11.28-11.75-12.06-5.87-.76-12.16,2.35-15.63,7.71-.45.69-.86,1.43-1.23,2.08l-.64-.36c.37-.66.79-1.41,1.25-2.12,3.63-5.59,10.19-8.82,16.34-8.04,6.62.84,12.06,6.44,12.38,12.75.17,3.21-1.2,6.61-3.65,9.08-2.19,2.21-5.01,3.45-7.81,3.45Z"/>
  <path class="cls-1" d="M18.73,117.93c-1.03,0-2.06-.09-3.08-.32-3.07-.69-6.51-3.11-6.82-6.81-.21-2.54,1.07-5.14,3.93-7.95,1.34-1.31,2.98-2.68,5.01-2.83.48-.04.98,0,1.47.01,1.17.06,2.27.12,2.87-.64.35-.44.43-1.06.5-1.71.02-.15.04-.31.06-.45.62-4.34,4.78-7.31,8.57-7.99,3.49-.63,7.38.07,11.9,2.14.53.24,1.06.49,1.56.4.54-.09.98-.57,1.4-1.04l.07-.08c3.57-3.91,9.06-6.03,14.34-5.54,5.27.5,10.27,3.6,13.06,8.11l-.62.38c-2.66-4.32-7.45-7.29-12.5-7.76-5.05-.48-10.31,1.56-13.73,5.3l-.07.08c-.48.53-1.03,1.13-1.81,1.27-.72.13-1.39-.18-1.98-.45-4.39-2.01-8.14-2.7-11.47-2.09-3.52.64-7.39,3.38-7.97,7.37-.02.14-.04.29-.06.44-.09.72-.17,1.47-.66,2.08-.84,1.05-2.18.98-3.48.92-.46-.02-.95-.05-1.38-.02-1.79.13-3.31,1.4-4.55,2.62-2.69,2.65-3.9,5.06-3.71,7.36.27,3.18,3.35,5.5,6.25,6.15,3.18.71,6.59.02,9.6-.6l26-5.32.15.72-26,5.32c-2.14.44-4.48.92-6.83.92Z"/>
  <path class="cls-1" d="M111.19,104.94l-.72-.16c.87-3.87-1.76-7.7-4.8-9.48-2.83-1.67-6.52-2.31-11.26-2-4.92.34-10.33,2.7-10.58,7.1l-.73-.04c.27-4.87,5.85-7.42,11.26-7.79,4.89-.34,8.72.35,11.68,2.1,3.27,1.92,6.08,6.07,5.14,10.28Z"/>
</svg>