<?xml version="1.0" encoding="UTF-8"?>
<svg id="Laag_1" data-name="Laag 1" xmlns="http://www.w3.org/2000/svg" version="1.1" viewBox="0 0 500 500">
  <defs>
    <style>
      .cls-1 {
        fill: #ff618e;
      }

      .cls-1, .cls-2 {
        stroke-width: 0px;
      }

      .cls-2 {
        fill: #1d1d1b;
      }
    </style>
  </defs>
  <circle class="cls-1" cx="250" cy="243" r="239.2"/>
  <g id="APaQud.tif">
    <g>
      <path class="cls-2" d="M433.4,255.7c-1.7,5-2.8,10.3-5.1,15.1-6.4,13.2-17.1,21.5-31.2,25.2-1.1.3-2.4.4-3.4,0-7.4-3.4-15-4.6-23-3-.3,0-.7-.1-1.2-.2,1.5-4.7,3-9.3,4.6-14,5.1.2,10.1,1,15,.6,11.5-.9,19.7-7.2,24.2-17.6,4.4-10.1,3.3-20.2-3.3-29.1-7.5-10.1-17.8-13.5-30-11.6-1.8.3-3.5.5-5.6.8-1.2-3.6-2.3-7.2-3.6-10.8-17.5-46.9-51.6-74.3-100.4-83.1-15.2-2.7-30.8-.7-44.7,7.4-3.7,2.1-7,5.5-9.5,9-4.3,6-3,11.6,2.7,16.4,5.8,4.9,12.7,7.5,20.1,8.8,9.1,1.6,18,1.7,26.7-2.3.3-.1.7-.2,1-.4,2.6-1.6,5.5-3,5.5-6.5,0-3.5-3.2-4.8-5.9-6.1-6.2-2.9-12.4-2.8-18.8-.7-6.7,2.2-10,.8-11.8-4.4-1.9-5.5.9-10.5,6.8-12.6,15.7-5.5,32.8-1.5,42,9.7,9.2,11.2,7.9,23.2-3.4,32.2-11.6,9.2-25,10.5-39,9.1-9.4-.9-18.5-3.5-26.8-8.2-13.1-7.5-22.9-25.7-16.7-41.3,0-.2,0-.4-.1-1-37,17.3-61.4,45.2-72.2,85-12.3-2.7-23.7-2-32.9,7.2-5.9,5.9-8.9,13.2-8.6,21.7.3,10.3,5,18.3,13.4,24,6.8,4.6,11.6,5.1,28,3.6.5,1.4,1.1,3,1.6,4.5,14.5,45.8,45.4,74.8,91.5,87.2,27.6,7.4,54.9,4.9,81.2-6.5,2.7-1.2,4.3-.9,6.3,1.4,3.1,3.6,6.7,6.7,11,11-9.4,3.5-17.8,7.4-26.6,9.9-48.7,13.4-93.1,4.3-132.8-26.7-19.4-15.1-33.6-34.4-42.7-57.3-1.2-3.1-2.6-4.5-6.2-4.8-23.1-1.9-41.7-21.9-42.5-45.1-.8-23.9,16-45,39.4-48.4,5.8-.8,8.4-3.1,10.7-8.4,12.3-29.1,32.7-51.3,59.9-67.1,24.7-14.4,51.6-21.7,80.2-19.5,59.8,4.6,102.8,34,127.5,89,1.7,3.8,3.4,5.1,7.5,5.6,21.8,2.9,37,18.1,41,39.9,0,.4.4.8.6,1.2v11.5Z"/>
      <path class="cls-2" d="M305,334.8c0-22.4,23.3-37.1,44-28,1.5.7,3.7.9,5.2.3,12.3-5.3,25.9-2.9,35.7,6.6,8.8,8.5,11.3,21.7,6.5,34.1-4.8,12.2-13.8,21.1-24.2,28.5-5.8,4.2-12.1,7.6-18.2,11.3-.9.6-2.6.8-3.5.4-15-7.9-28.9-17.2-38.5-31.7-4.3-6.5-6.9-13.6-6.9-21.4ZM351.8,331.2c-2.1-1.9-4.2-4-6.5-5.8-5.4-4.3-11.9-4.6-17.2-.9-4.9,3.4-6.7,9.4-4.4,15.9.9,2.5,2.1,5.1,3.7,7.3,6,8.6,14.3,14.6,23.1,19.9.8.5,2.6.3,3.4-.3,5.4-3.9,10.9-7.7,16-12,4.9-4.2,8.9-9.3,10.6-15.8,1.6-5.8-.2-11.3-4.6-14.7-4.6-3.5-10.3-4-15.4-.7-3.1,2-5.7,4.6-8.7,7.1Z"/>
      <path class="cls-2" d="M249.8,326.8c-18.4,0-33.6-14.6-34.7-33.1-.4-5.7,3.2-10.2,8.4-10.5,4.9-.3,8.9,3.6,9.3,9.2.7,8.5,6,14.9,13.5,16.4,7.8,1.6,15.4-2,18.8-9.1,1.1-2.3,1.6-5,1.9-7.5.7-5.3,4.5-9.2,9.3-8.9,5,.3,8.7,4.7,8.5,10.1-.7,18.6-16.4,33.6-35,33.6Z"/>
      <path class="cls-2" d="M298.8,254.4c0,6.9-4.7,11.6-11.3,11.6-6.7,0-11.6-5-11.5-11.9.1-6.7,4.9-11.6,11.4-11.7,6.7,0,11.4,4.9,11.4,12Z"/>
      <path class="cls-2" d="M201.2,255.2c.2-6.8,5.1-11.5,11.7-11.3,6.6.2,11.2,5.2,11.1,11.9,0,6.9-5,11.7-11.8,11.6-6.7-.2-11.2-5.1-11-12.2Z"/>
    </g>
  </g>
</svg>